#!OML:ASF F:\VICON\USERDATA\INSTALL\rory3\rory3.ASF
:FULLY-SPECIFIED
:DEGREES
288
root -10.5451 17.7098 5.60938 -184.742 58.0585 -182.117
lowerback 14.2119 0.602274 -4.02262
upperback 0.958993 0.31718 1.04236
thorax -6.98927 0.331937 3.32127
lowerneck -16.4349 -9.18637 -12.6713
upperneck 29.1887 -12.0435 10.5102
head 14.2324 -5.01685 4.30618
rclavicle -4.55217e-014 1.19271e-014
rhumerus -35.6811 -17.4437 -75.1253
rradius 36.4348
rwrist 7.29642
rhand -18.5178 5.68423
rfingers 7.12502
rthumb 7.7706 -24.153
lclavicle -4.55217e-014 1.19271e-014
lhumerus -34.8544 5.63917 80.7801
lradius 36.3147
lwrist -4.03576
lhand -17.8258 26.2294
lfingers 7.12502
lthumb 8.43848 56.0408
rfemur -13.7158 -7.37943 5.10587
rtibia 47.1324
rfoot -13.2634 -3.9688
rtoes -1.73622
lfemur -3.22375 0.246173 -21.5584
ltibia 25.3129
lfoot -15.7605 -5.54943
ltoes 0.949487
289
root -10.4821 17.7083 5.65262 -184.813 57.5046 -182.265
lowerback 14.0653 0.649544 -4.07038
upperback 0.992247 0.373647 0.963987
thorax -6.8765 0.356762 3.25287
lowerneck -16.5023 -9.22196 -12.5885
upperneck 29.1925 -12.1156 10.5261
head 14.2546 -5.03194 4.28317
rclavicle 7.31279e-014 -2.52457e-014
rhumerus -35.6627 -17.8671 -75.0254
rradius 36.1848
rwrist 7.61291
rhand -18.6409 5.80026
rfingers 7.12502
rthumb 7.6518 -24.0413
lclavicle 7.31279e-014 -2.52457e-014
lhumerus -34.716 5.41281 80.7539
lradius 36.3011
lwrist -3.92045
lhand -17.5528 26.1252
lfingers 7.12502
lthumb 8.70191 55.9258
rfemur -13.3382 -6.36589 4.50431
rtibia 45.5008
rfoot -12.9274 -4.45442
rtoes -3.36424
lfemur -3.23527 -0.0558178 -21.4323
ltibia 25.3623
lfoot -15.8689 -5.75671
ltoes 0.714644
290
root -10.4191 17.7089 5.69812 -184.668 56.8581 -182.176
lowerback 13.975 0.619434 -4.02799
upperback 0.97671 0.341183 0.93746
thorax -6.83943 0.338306 3.20672
lowerneck -16.4696 -9.22901 -12.6686
upperneck 29.131 -12.1688 10.752
head 14.255 -5.03413 4.37982
rclavicle 2.33572e-015 0
rhumerus -35.7178 -18.1203 -74.9263
rradius 36.0273
rwrist 8.01921
rhand -18.9633 5.8071
rfingers 7.12502
rthumb 7.3406 -24.0456
lclavicle 2.33572e-015 0
lhumerus -34.755 5.41966 80.6418
lradius 36.4185
lwrist -4.04469
lhand -17.2029 26.1555
lfingers 7.12502
lthumb 9.03952 55.9418
rfemur -12.8825 -5.41299 4.02221
rtibia 43.8476
rfoot -12.8112 -4.75233
rtoes -5.23633
lfemur -3.26753 -0.353409 -21.1381
ltibia 25.3576
lfoot -15.9158 -6.14319
ltoes 1.00149
291
root -10.352 17.7066 5.74334 -184.506 56.1528 -182.003
lowerback 13.9012 0.581884 -4.01523
upperback 0.988941 0.30075 0.98686
thorax -6.78182 0.317734 3.25985
lowerneck -16.4821 -9.23839 -12.7819
upperneck 29.1149 -12.1821 10.881
head 14.2737 -5.03369 4.44977
rclavicle 2.76311e-014 -7.95139e-016
rhumerus -35.8074 -18.1164 -74.8146
rradius 35.9706
rwrist 8.03106
rhand -19.0591 6.00587
rfingers 7.12502
rthumb 7.24811 -23.85
lclavicle 2.76311e-014 -7.95139e-016
lhumerus -34.78 5.44014 80.6073
lradius 36.5929
lwrist -3.98489
lhand -16.9942 26.1751
lfingers 7.12502
lthumb 9.24094 55.9525
rfemur -12.3236 -4.53906 3.59363
rtibia 42.1614
rfoot -12.6662 -4.97022
rtoes -7.64101
lfemur -3.21102 -0.597954 -20.7762
ltibia 25.3152
lfoot -16.0437 -6.53275
ltoes 0.314023
292
root -10.2804 17.6988 5.78883 -184.493 55.4896 -181.886
lowerback 13.8435 0.575785 -3.98763
upperback 1.08595 0.304897 0.984622
thorax -6.64594 0.316052 3.24028
lowerneck -16.5384 -9.248 -12.7357
upperneck 29.0549 -12.2193 10.9465
head 14.2674 -5.03407 4.4583
rclavicle -3.25013e-014 -6.36111e-015
rhumerus -35.8307 -18.0663 -74.8095
rradius 35.9528
rwrist 7.74762
rhand -19.0544 6.06357
rfingers 7.12502
rthumb 7.25261 -23.7921
lclavicle -3.25013e-014 -6.36111e-015
lhumerus -34.6545 5.31156 80.4957
lradius 36.7797
lwrist -3.56479
lhand -16.3512 26.2471
lfingers 7.12502
lthumb 9.86135 55.9961
rfemur -11.6423 -3.48895 3.19504
rtibia 40.4498
rfoot -12.3742 -5.34085
rtoes -9.54874
lfemur -3.03063 -0.910203 -20.4457
ltibia 25.2768
lfoot -16.2085 -6.84035
ltoes -0.332436
293
root -10.2097 17.6922 5.83444 -184.416 54.91 -181.79
lowerback 13.6843 0.577312 -3.93624
upperback 1.16307 0.323303 0.961496
thorax -6.47585 0.319262 3.1821
lowerneck -16.6132 -9.24568 -12.5929
upperneck 29.0057 -12.2277 10.8845
head 14.2458 -5.02761 4.40265
rclavicle -5.87906e-014 1.63003e-014
rhumerus -35.8441 -17.9581 -74.8678
rradius 35.9483
rwrist 7.5601
rhand -19.1342 6.02581
rfingers 7.12502
rthumb 7.17561 -23.8325
lclavicle -5.87906e-014 1.63003e-014
lhumerus -34.4966 5.15629 80.3848
lradius 36.8442
lwrist -3.30307
lhand -16.0709 26.2155
lfingers 7.12502
lthumb 10.1318 55.9515
rfemur -11.0339 -2.20164 2.81944
rtibia 38.74
rfoot -12.2594 -5.64589
rtoes -10.0841
lfemur -2.94929 -1.20213 -20.1246
ltibia 25.2456
lfoot -16.2813 -7.1812
ltoes -0.478508
294
root -10.1425 17.6881 5.88266 -184.403 54.3359 -181.817
lowerback 13.5615 0.62676 -3.94388
upperback 1.20232 0.392203 0.929039
thorax -6.37124 0.350263 3.13843
lowerneck -16.6988 -9.27767 -12.495
upperneck 29.0374 -12.2594 10.7765
head 14.2659 -5.03906 4.33363
rclavicle 3.12837e-014 7.55382e-015
rhumerus -35.8728 -18.1175 -74.7609
rradius 35.89
rwrist 7.67005
rhand -19.078 6.01993
rfingers 7.12502
rthumb 7.22982 -23.8366
lclavicle 3.12837e-014 7.55382e-015
lhumerus -34.3481 4.95762 80.3653
lradius 36.8493
lwrist -3.27999
lhand -16.1103 26.3877
lfingers 7.12502
lthumb 10.0938 56.1256
rfemur -10.5053 -1.01568 2.3553
rtibia 37.0487
rfoot -12.0209 -5.72786
rtoes -10.1811
lfemur -2.9601 -1.50504 -19.881
ltibia 25.2465
lfoot -16.1915 -7.63524
ltoes 0.104799
295
root -10.0758 17.6799 5.93094 -184.451 53.7575 -181.93
lowerback 13.5015 0.662428 -4.03369
upperback 1.17254 0.426604 0.927852
thorax -6.37315 0.369493 3.18171
lowerneck -16.5787 -9.26589 -12.6544
upperneck 28.9821 -12.2274 10.8829
head 14.2331 -5.03191 4.41324
rclavicle 1.16836e-013 -1.25234e-014
rhumerus -35.9605 -18.0869 -74.6323
rradius 35.8251
rwrist 7.76905
rhand -19.1089 5.9458
rfingers 7.12502
rthumb 7.20001 -23.9117
lclavicle 1.16836e-013 -1.25234e-014
lhumerus -34.3217 4.84187 80.3711
lradius 36.806
lwrist -3.32229
lhand -16.2008 26.2686
lfingers 7.12502
lthumb 10.0064 56.0107
rfemur -10.0105 -0.0144545 1.80875
rtibia 35.3939
rfoot -11.6225 -5.48654
rtoes -10.29
lfemur -2.98262 -1.70466 -19.6891
ltibia 25.2458
lfoot -16.2419 -7.91419
ltoes -1.12826
296
root -10.0057 17.6714 5.9773 -184.34 53.2192 -181.898
lowerback 13.4206 0.609176 -4.08255
upperback 1.03332 0.347994 0.992152
thorax -6.47072 0.33523 3.29313
lowerneck -16.2714 -9.13673 -12.9092
upperneck 28.9457 -12.0161 11.0173
head 14.1494 -4.95867 4.56332
rclavicle 8.17999e-014 5.96354e-016
rhumerus -36.1755 -17.488 -74.6988
rradius 35.8676
rwrist 7.54954
rhand -19.056 5.6311
rfingers 7.12502
rthumb 7.25111 -24.2247
lclavicle 8.17999e-014 5.96354e-016
lhumerus -34.5999 5.02724 80.2557
lradius 36.8121
lwrist -3.40216
lhand -16.1174 26.1222
lfingers 7.12502
lthumb 10.0869 55.8605
rfemur -9.52058 0.921316 1.35023
rtibia 33.7755
rfoot -11.495 -4.96387
rtoes -10.0441
lfemur -3.05303 -1.87556 -19.3822
ltibia 25.2467
lfoot -16.3426 -8.21276
ltoes -2.47373
297
root -9.93274 17.6647 6.0239 -184.195 52.6308 -181.763
lowerback 13.3952 0.533517 -4.08452
upperback 0.940503 0.249476 1.07912
thorax -6.54752 0.290312 3.40582
lowerneck -16.2754 -9.03587 -12.9377
upperneck 29.0859 -11.7987 10.8374
head 14.1644 -4.88584 4.54264
rclavicle -2.90226e-014 1.98785e-016
rhumerus -36.2089 -17.0887 -74.7903
rradius 35.8221
rwrist 7.32939
rhand -18.8768 5.17416
rfingers 7.12502
rthumb 7.42405 -24.6756
lclavicle -2.90226e-014 1.98785e-016
lhumerus -34.8057 5.15497 80.1639
lradius 36.8471
lwrist -3.23281
lhand -16.1437 25.9731
lfingers 7.12502
lthumb 10.0615 55.7126
rfemur -8.93494 1.93163 1.00118
rtibia 32.1808
rfoot -11.378 -4.32571
rtoes -9.5623
lfemur -3.11294 -2.03834 -18.9963
ltibia 25.2657
lfoot -16.4915 -8.62807
ltoes -2.91282
298
root -9.85848 17.6498 6.07548 -184.042 51.9789 -181.644
lowerback 13.3151 0.526525 -4.02454
upperback 0.951142 0.251614 1.05961
thorax -6.49119 0.287987 3.35014
lowerneck -16.4684 -9.06139 -12.8148
upperneck 29.1658 -11.8297 10.7559
head 14.2301 -4.88659 4.47996
rclavicle 7.88678e-014 3.77691e-015
rhumerus -36.1524 -17.3238 -74.7846
rradius 35.6663
rwrist 7.29189
rhand -18.8866 4.92126
rfingers 7.12502
rthumb 7.41461 -24.9288
lclavicle 7.88678e-014 3.77691e-015
lhumerus -34.6941 4.87854 80.0633
lradius 36.8509
lwrist -3.08333
lhand -16.2654 25.5995
lfingers 7.12502
lthumb 9.94414 55.3446
rfemur -8.35365 3.05444 0.686649
rtibia 30.6091
rfoot -10.9802 -3.63793
rtoes -9.08735
lfemur -3.24739 -2.20752 -18.6149
ltibia 25.317
lfoot -16.7915 -8.94201
ltoes -4.80388
